<svg width="510" height="84" viewBox="0 0 510 84" fill="none" xmlns="http://www.w3.org/2000/svg">
<path d="M459.223 60.3605L445.786 84.62H395.129L413.679 54.8219C403.215 50.1694 399.053 42.1936 399.053 32.1132C399.053 14.611 410.825 3.75513 444.835 3.75513H509.999V84.62H466.477V60.3605H459.223ZM466.358 39.9782V31.4486H450.78C445.429 31.4486 443.764 33.1102 443.764 35.7688C443.764 38.4273 445.429 39.9782 450.78 39.9782H466.358Z" fill="#FF1F68"/>
<path d="M390.886 3.75513V84.62H344.391V3.75513H390.886Z" fill="#FF1F68"/>
<path d="M228.496 3.75513H288.785C326.6 3.75513 338.848 15.1648 338.848 34.9933C338.848 55.3757 326.6 66.7854 288.785 66.7854H272.375V84.62H228.496V3.75513ZM272.375 40.4213H287.001C292.115 40.4213 293.898 38.7596 293.898 35.9903C293.898 33.221 292.115 31.5594 287.001 31.5594H272.375V40.4213Z" fill="#FF1F68"/>
<path d="M143.255 36.5442H111.268V3.75513H221.381V36.5442H189.631V84.62H143.255V36.5442Z" fill="#FF1F68"/>
<path d="M90.6273 3.75513L124.993 84.62H80.6386L77.428 76.0904H50.5536L47.3429 84.62H2.98828L37.2353 3.75513H90.6273ZM70.1743 51.2771L63.9908 33.1102L57.8073 51.2771H70.1743Z" fill="#FF1F68"/>
<path d="M456.235 57.2254L442.798 81.4849H392.141L410.691 51.6867C400.227 47.0342 396.065 39.0585 396.065 28.9781C396.065 11.4758 407.837 0.619995 441.846 0.619995H507.011V81.4849H463.489V57.2254H456.235ZM463.37 36.843V28.3134H447.792C442.441 28.3134 440.776 29.9751 440.776 32.6336C440.776 35.2922 442.441 36.843 447.792 36.843H463.37Z" fill="#E8E74E"/>
<path d="M387.897 0.619995V81.4849H341.402V0.619995H387.897Z" fill="#E8E74E"/>
<path d="M225.508 0.619995H285.797C323.611 0.619995 335.859 12.0297 335.859 31.8582C335.859 52.2406 323.611 63.6503 285.797 63.6503H269.387V81.4849H225.508V0.619995ZM269.387 37.2861H284.013C289.126 37.2861 290.91 35.6245 290.91 32.8552C290.91 30.0858 289.126 28.4242 284.013 28.4242H269.387V37.2861Z" fill="#E8E74E"/>
<path d="M140.267 33.409H108.279V0.619995H218.393V33.409H186.643V81.4849H140.267V33.409Z" fill="#E8E74E"/>
<path d="M87.6391 0.619995L122.005 81.4849H77.6504L74.4397 72.9553H47.5653L44.3546 81.4849H0L34.247 0.619995H87.6391ZM67.186 48.142L61.0025 29.9751L54.819 48.142H67.186Z" fill="#E8E74E"/>
</svg>
