<svg width="510" height="84" viewBox="0 0 510 84" fill="none" xmlns="http://www.w3.org/2000/svg">
<path d="M456.901 38.4861L476.373 3.07434H509.999V82.3707H476.914V46.7416L457.532 82.3707H423.906V3.07434H456.991L456.901 38.4861Z" fill="#FF1F68"/>
<path d="M422.504 82.3707H383.559L370.938 55.323L365.62 62.0578V82.3707H332.084V3.07434H365.62V29.253L382.387 3.07434H421.873L400.327 36.8567L422.504 82.3707Z" fill="#FF1F68"/>
<path d="M324.899 3.07434V82.3707H289.65V3.07434H324.899Z" fill="#FF1F68"/>
<path d="M204.617 36.5309L205.608 3.07434H282.416V82.3707H249.241V32.8376H236.53L236.259 41.0931C235.268 70.965 224.99 84 204.076 84C197.855 84 192.537 82.9138 190.373 82.3707V51.3039C191.906 51.5211 193.979 51.7384 195.872 51.7384C201.371 51.7384 204.346 48.1538 204.617 36.5309Z" fill="#FF1F68"/>
<path d="M186.377 82.3707H111.553V3.07434H185.836V27.9495H144.457V34.2497H184.574V50.8694H144.457V57.2783H186.377V82.3707Z" fill="#FF1F68"/>
<path d="M94.4266 2.04956V42.7695H107V81.9812H74.399V66.8111H35.601V81.9812H3V42.7695H14.6753C16.2919 39.2209 17.5492 33.8093 17.9085 25.4702L18.8964 2.04956H94.4266ZM46.8273 43.7453H62.095V25.1153H49.1623L48.8929 31.5027C48.7133 36.9143 47.9948 40.8178 46.8273 43.7453Z" fill="#FF1F68"/>
<path d="M453.901 35.4118L473.373 0H506.999V79.2963H473.914V43.6673L454.532 79.2963H420.906V0H453.991L453.901 35.4118Z" fill="#E8E74E"/>
<path d="M419.504 79.2963H380.559L367.938 52.2487L362.62 58.9834V79.2963H329.084V0H362.62V26.1786L379.387 0H418.873L397.327 33.7824L419.504 79.2963Z" fill="#E8E74E"/>
<path d="M321.899 0V79.2963H286.65V0H321.899Z" fill="#E8E74E"/>
<path d="M201.617 33.4565L202.608 0H279.416V79.2963H246.241V29.7633H233.53L233.259 38.0188C232.268 67.8907 221.99 80.9257 201.076 80.9257C194.855 80.9257 189.537 79.8395 187.373 79.2963V48.2295C188.906 48.4468 190.979 48.664 192.872 48.664C198.371 48.664 201.346 45.0794 201.617 33.4565Z" fill="#E8E74E"/>
<path d="M183.377 79.2963H108.553V0H182.836V24.8751H141.457V31.1754H181.574V47.795H141.457V54.2039H183.377V79.2963Z" fill="#E8E74E"/>
<path d="M91.4266 0V40.1979H104V78.9069H71.399V63.9312H32.601V78.9069H0V40.1979H11.6753C13.2919 36.6948 14.5492 31.3526 14.9085 23.1203L15.8964 0H91.4266ZM43.8273 41.1612H59.095V22.77H46.1623L45.8929 29.0756C45.7133 34.4178 44.9948 38.2712 43.8273 41.1612Z" fill="#E8E74E"/>
</svg>
