<svg width="326" height="25" viewBox="0 0 326 25" fill="none" xmlns="http://www.w3.org/2000/svg">
<path d="M0.733125 0.639999H16.0931C27.0691 0.639999 32.1891 5.76 32.1891 11.776V12.864C32.1891 18.88 27.0691 24 16.0931 24H0.733125V0.639999ZM19.5491 12.448V12.192C19.5491 10.752 18.3651 9.568 15.6131 9.568H13.0851V15.072H15.6131C18.3651 15.072 19.5491 13.888 19.5491 12.448ZM64.3599 20.064V21.088C64.3599 22.624 64.5519 23.296 65.1919 24H52.2639C51.6879 23.424 51.3039 22.592 51.3039 21.088V18.72C51.3039 17.568 50.9519 17.216 49.9279 17.216H46.6639V24H34.9519V0.639999H52.6479C61.7679 0.639999 64.9359 3.744 64.9359 7.776C64.9359 11.84 61.5439 13.6 58.0879 14.144V14.208C62.6959 14.624 64.3599 16.16 64.3599 20.064ZM46.6639 11.136H50.9519C52.3919 11.136 52.8719 10.656 52.8719 9.888C52.8719 9.088 52.3919 8.64 50.9519 8.64H46.6639V11.136ZM79.2196 19.648C79.2196 22.752 77.3956 24.608 73.2036 24.608C69.0436 24.608 67.2196 22.752 67.2196 19.648C67.2196 16.64 69.0436 14.816 73.2036 14.816C77.3956 14.816 79.2196 16.64 79.2196 19.648ZM114.602 14.432H109.802V10.464H127.242V24H121.962L118.442 17.504C117.386 22.08 113.706 24.64 107.242 24.64C99.0501 24.64 94.1221 19.68 94.1221 13.12V11.904C94.1221 5.088 99.2101 -1.90735e-06 111.146 -1.90735e-06C122.218 -1.90735e-06 126.73 4.512 127.242 9.472H114.154C113.866 8.992 113.13 8.224 110.762 8.224C107.978 8.224 106.698 9.536 106.698 12.192V12.448C106.698 15.104 107.946 16.352 110.73 16.352C113.322 16.352 114.378 15.328 114.602 14.432ZM151.538 0.639999L160.786 24H148.85L147.986 21.536H140.754L139.89 24H127.954L137.17 0.639999H151.538ZM146.034 14.368L144.37 9.12L142.706 14.368H146.034ZM172.274 11.904L175.922 0.639999H188.466L179.506 24H165.17L155.954 0.639999H168.498L172.274 11.904ZM218.86 20.064V21.088C218.86 22.624 219.052 23.296 219.692 24H206.764C206.188 23.424 205.804 22.592 205.804 21.088V18.72C205.804 17.568 205.452 17.216 204.428 17.216H201.164V24H189.452V0.639999H207.148C216.268 0.639999 219.436 3.744 219.436 7.776C219.436 11.84 216.044 13.6 212.588 14.144V14.208C217.196 14.624 218.86 16.16 218.86 20.064ZM201.164 11.136H205.452C206.892 11.136 207.372 10.656 207.372 9.888C207.372 9.088 206.892 8.64 205.452 8.64H201.164V11.136ZM238.468 0.639999H251.78L241.572 18.208V24H229.156V18.24L218.916 0.639999H232.228L235.396 7.232L238.468 0.639999ZM275.845 24H252.421V0.639999H264.965V14.4H275.845V24ZM291.183 0.639999V24H278.671V0.639999H291.183ZM313.805 10.112V0.639999H325.261V24H313.773L306.189 13.984V24H294.733V0.639999H306.893L313.805 10.112Z" fill="#FF1F68"/>
</svg>
