<svg width="332" height="39" viewBox="0 0 332 39" fill="none" xmlns="http://www.w3.org/2000/svg">
<path d="M5.73313 9.64H21.0931C32.0691 9.64 37.1891 14.76 37.1891 20.776V21.864C37.1891 27.88 32.0691 33 21.0931 33H5.73313V9.64ZM24.5491 21.448V21.192C24.5491 19.752 23.3651 18.568 20.6131 18.568H18.0851V24.072H20.6131C23.3651 24.072 24.5491 22.888 24.5491 21.448ZM69.3599 29.064V30.088C69.3599 31.624 69.5519 32.296 70.1919 33H57.2639C56.6879 32.424 56.3039 31.592 56.3039 30.088V27.72C56.3039 26.568 55.9519 26.216 54.9279 26.216H51.6639V33H39.9519V9.64H57.6479C66.7679 9.64 69.9359 12.744 69.9359 16.776C69.9359 20.84 66.5439 22.6 63.0879 23.144V23.208C67.6959 23.624 69.3599 25.16 69.3599 29.064ZM51.6639 20.136H55.9519C57.3919 20.136 57.8719 19.656 57.8719 18.888C57.8719 18.088 57.3919 17.64 55.9519 17.64H51.6639V20.136ZM84.2196 28.648C84.2196 31.752 82.3956 33.608 78.2036 33.608C74.0436 33.608 72.2196 31.752 72.2196 28.648C72.2196 25.64 74.0436 23.816 78.2036 23.816C82.3956 23.816 84.2196 25.64 84.2196 28.648ZM119.602 23.432H114.802V19.464H132.242V33H126.962L123.442 26.504C122.386 31.08 118.706 33.64 112.242 33.64C104.05 33.64 99.1221 28.68 99.1221 22.12V20.904C99.1221 14.088 104.21 9 116.146 9C127.218 9 131.73 13.512 132.242 18.472H119.154C118.866 17.992 118.13 17.224 115.762 17.224C112.978 17.224 111.698 18.536 111.698 21.192V21.448C111.698 24.104 112.946 25.352 115.73 25.352C118.322 25.352 119.378 24.328 119.602 23.432ZM156.538 9.64L165.786 33H153.85L152.986 30.536H145.754L144.89 33H132.954L142.17 9.64H156.538ZM151.034 23.368L149.37 18.12L147.706 23.368H151.034ZM177.274 20.904L180.922 9.64H193.466L184.506 33H170.17L160.954 9.64H173.498L177.274 20.904ZM223.86 29.064V30.088C223.86 31.624 224.052 32.296 224.692 33H211.764C211.188 32.424 210.804 31.592 210.804 30.088V27.72C210.804 26.568 210.452 26.216 209.428 26.216H206.164V33H194.452V9.64H212.148C221.268 9.64 224.436 12.744 224.436 16.776C224.436 20.84 221.044 22.6 217.588 23.144V23.208C222.196 23.624 223.86 25.16 223.86 29.064ZM206.164 20.136H210.452C211.892 20.136 212.372 19.656 212.372 18.888C212.372 18.088 211.892 17.64 210.452 17.64H206.164V20.136ZM243.468 9.64H256.78L246.572 27.208V33H234.156V27.24L223.916 9.64H237.228L240.396 16.232L243.468 9.64ZM280.845 33H257.421V9.64H269.965V23.4H280.845V33ZM296.183 9.64V33H283.671V9.64H296.183ZM318.805 19.112V9.64H330.261V33H318.773L311.189 22.984V33H299.733V9.64H311.893L318.805 19.112Z" fill="#E8E74E"/>
<path d="M1.73313 8.64H17.0931C28.0691 8.64 33.1891 13.76 33.1891 19.776V20.864C33.1891 26.88 28.0691 32 17.0931 32H1.73313V8.64ZM20.5491 20.448V20.192C20.5491 18.752 19.3651 17.568 16.6131 17.568H14.0851V23.072H16.6131C19.3651 23.072 20.5491 21.888 20.5491 20.448ZM65.3599 28.064V29.088C65.3599 30.624 65.5519 31.296 66.1919 32H53.2639C52.6879 31.424 52.3039 30.592 52.3039 29.088V26.72C52.3039 25.568 51.9519 25.216 50.9279 25.216H47.6639V32H35.9519V8.64H53.6479C62.7679 8.64 65.9359 11.744 65.9359 15.776C65.9359 19.84 62.5439 21.6 59.0879 22.144V22.208C63.6959 22.624 65.3599 24.16 65.3599 28.064ZM47.6639 19.136H51.9519C53.3919 19.136 53.8719 18.656 53.8719 17.888C53.8719 17.088 53.3919 16.64 51.9519 16.64H47.6639V19.136ZM80.2196 27.648C80.2196 30.752 78.3956 32.608 74.2036 32.608C70.0436 32.608 68.2196 30.752 68.2196 27.648C68.2196 24.64 70.0436 22.816 74.2036 22.816C78.3956 22.816 80.2196 24.64 80.2196 27.648ZM115.602 22.432H110.802V18.464H128.242V32H122.962L119.442 25.504C118.386 30.08 114.706 32.64 108.242 32.64C100.05 32.64 95.1221 27.68 95.1221 21.12V19.904C95.1221 13.088 100.21 8 112.146 8C123.218 8 127.73 12.512 128.242 17.472H115.154C114.866 16.992 114.13 16.224 111.762 16.224C108.978 16.224 107.698 17.536 107.698 20.192V20.448C107.698 23.104 108.946 24.352 111.73 24.352C114.322 24.352 115.378 23.328 115.602 22.432ZM152.538 8.64L161.786 32H149.85L148.986 29.536H141.754L140.89 32H128.954L138.17 8.64H152.538ZM147.034 22.368L145.37 17.12L143.706 22.368H147.034ZM173.274 19.904L176.922 8.64H189.466L180.506 32H166.17L156.954 8.64H169.498L173.274 19.904ZM219.86 28.064V29.088C219.86 30.624 220.052 31.296 220.692 32H207.764C207.188 31.424 206.804 30.592 206.804 29.088V26.72C206.804 25.568 206.452 25.216 205.428 25.216H202.164V32H190.452V8.64H208.148C217.268 8.64 220.436 11.744 220.436 15.776C220.436 19.84 217.044 21.6 213.588 22.144V22.208C218.196 22.624 219.86 24.16 219.86 28.064ZM202.164 19.136H206.452C207.892 19.136 208.372 18.656 208.372 17.888C208.372 17.088 207.892 16.64 206.452 16.64H202.164V19.136ZM239.468 8.64H252.78L242.572 26.208V32H230.156V26.24L219.916 8.64H233.228L236.396 15.232L239.468 8.64ZM276.845 32H253.421V8.64H265.965V22.4H276.845V32ZM292.183 8.64V32H279.671V8.64H292.183ZM314.805 18.112V8.64H326.261V32H314.773L307.189 21.984V32H295.733V8.64H307.893L314.805 18.112Z" fill="#FF1F68"/>
</svg>
