<svg width="190" height="76" viewBox="0 0 190 76" fill="none" xmlns="http://www.w3.org/2000/svg">
<path d="M94.927 1.66893e-06C43.223 1.66893e-06 22 16.697 0 39.8753C26.5 66.2121 43.223 76 94.927 76C146.777 76 169.5 60.4545 190 39.8753C168 13.2424 146.777 1.66893e-06 94.927 1.66893e-06ZM94.927 28.6234C106.758 28.6234 112.308 32.374 112.308 37.6052V38.3948C112.308 43.626 106.758 47.3766 94.927 47.3766C83.0964 47.3766 77.6923 43.626 77.6923 38.3948V37.6052C77.6923 32.374 83.0964 28.6234 94.927 28.6234Z" fill="#FF1F68"/>
<path d="M95.4323 0C47.52 0 26 15.6935 26 36.1247V39.8753C26 60.3065 47.52 76 95.4323 76C143.48 76 165 60.3065 165 39.8753V36.1247C165 15.6935 143.48 0 95.4323 0Z" fill="#E8E74E"/>
</svg>
