<svg width="32" height="32" viewBox="0 0 32 32" fill="none" xmlns="http://www.w3.org/2000/svg">
<path d="M5.93945 15.8157C5.93945 11.1068 5.93945 8.75135 7.40216 7.28864C8.86488 5.82593 11.2193 5.82593 15.9292 5.82593C20.6381 5.82593 22.9935 5.82593 24.4563 7.28864C25.919 8.75135 25.919 11.1058 25.919 15.8157C25.919 20.5245 25.919 22.88 24.4563 24.3427C22.9935 25.8054 20.6391 25.8054 15.9292 25.8054C11.2204 25.8054 8.86488 25.8054 7.40216 24.3427C5.93945 22.88 5.93945 20.5256 5.93945 15.8157Z" stroke="white" stroke-width="2" stroke-linecap="round" stroke-linejoin="round"/>
<path d="M21.7212 10.0323H21.7107M20.6612 15.8159C20.6612 17.0709 20.1627 18.2745 19.2753 19.1619C18.3879 20.0493 17.1843 20.5479 15.9293 20.5479C14.6743 20.5479 13.4707 20.0493 12.5832 19.1619C11.6958 18.2745 11.1973 17.0709 11.1973 15.8159C11.1973 14.5609 11.6958 13.3573 12.5832 12.4699C13.4707 11.5825 14.6743 11.0839 15.9293 11.0839C17.1843 11.0839 18.3879 11.5825 19.2753 12.4699C20.1627 13.3573 20.6612 14.5609 20.6612 15.8159Z" stroke="white" stroke-width="2" stroke-linecap="round" stroke-linejoin="round"/>
</svg>
