<svg width="510" height="84" viewBox="0 0 510 84" fill="none" xmlns="http://www.w3.org/2000/svg">
<path d="M460.203 59.0508L447.025 82.3703H397.346L415.538 53.7267C405.276 49.2545 401.194 41.5878 401.194 31.898C401.194 15.0739 412.739 4.63867 446.092 4.63867H510V82.3703H467.317V59.0508H460.203ZM467.2 39.4582V31.2591H451.923C446.675 31.2591 445.043 32.8563 445.043 35.4119C445.043 37.9674 446.675 39.4582 451.923 39.4582H467.2Z" fill="#FF1F68"/>
<path d="M393.18 4.63867V82.3703H347.582V4.63867H393.18Z" fill="#FF1F68"/>
<path d="M300.589 82.3703H255.107V4.63867H340.939V36.1573H300.589V82.3703Z" fill="#FF1F68"/>
<path d="M188.572 84.4999C147.289 84.4999 128.746 67.5694 128.746 45.5276V41.4813C128.746 19.4396 147.289 2.50903 188.572 2.50903C229.971 2.50903 248.514 19.4396 248.514 41.4813V45.5276C248.514 67.5694 229.971 84.4999 188.572 84.4999ZM188.572 53.6202C198.018 53.6202 202.449 49.5739 202.449 43.9304V43.0786C202.449 37.435 198.018 33.3887 188.572 33.3887C179.125 33.3887 174.811 37.435 174.811 43.0786V43.9304C174.811 49.5739 179.125 53.6202 188.572 53.6202Z" fill="#FF1F68"/>
<path d="M21.4258 37.435L22.7086 4.63867H122.068V82.3703H79.1521V33.8147H62.7089L62.359 41.9073C61.0762 71.1897 47.7817 83.9675 20.7261 83.9675C12.6794 83.9675 5.79885 82.9027 3 82.3703V51.9165C4.98252 52.1295 7.66476 52.3425 10.1138 52.3425C17.2275 52.3425 21.0759 48.8286 21.4258 37.435Z" fill="#FF1F68"/>
<path d="M457.203 57.0418L444.025 80.3613H394.346L412.538 51.7177C402.276 47.2455 398.194 39.5788 398.194 29.8889C398.194 13.0648 409.739 2.62964 443.092 2.62964H507V80.3613H464.317V57.0418H457.203ZM464.2 37.4492V29.2501H448.923C443.675 29.2501 442.043 30.8473 442.043 33.4028C442.043 35.9584 443.675 37.4492 448.923 37.4492H464.2Z" fill="#E8E74E"/>
<path d="M390.18 2.62964V80.3613H344.582V2.62964H390.18Z" fill="#E8E74E"/>
<path d="M297.589 80.3613H252.107V2.62964H337.939V34.1482H297.589V80.3613Z" fill="#E8E74E"/>
<path d="M185.572 82.4909C144.289 82.4909 125.746 65.5603 125.746 43.5186V39.4723C125.746 17.4306 144.289 0.5 185.572 0.5C226.971 0.5 245.514 17.4306 245.514 39.4723V43.5186C245.514 65.5603 226.971 82.4909 185.572 82.4909ZM185.572 51.6112C195.018 51.6112 199.449 47.5649 199.449 41.9214V41.0695C199.449 35.426 195.018 31.3797 185.572 31.3797C176.125 31.3797 171.811 35.426 171.811 41.0695V41.9214C171.811 47.5649 176.125 51.6112 185.572 51.6112Z" fill="#E8E74E"/>
<path d="M18.4258 35.426L19.7086 2.62964H119.068V80.3613H76.1521V31.8056H59.7089L59.359 39.8982C58.0762 69.1807 44.7817 81.9585 17.7261 81.9585C9.67937 81.9585 2.79885 80.8937 0 80.3613V49.9075C1.98252 50.1205 4.66476 50.3334 7.11375 50.3334C14.2275 50.3334 18.0759 46.8195 18.4258 35.426Z" fill="#E8E74E"/>
</svg>
