<svg width="508" height="85" viewBox="0 0 508 85" fill="none" xmlns="http://www.w3.org/2000/svg">
<path d="M480.045 43.492L507.759 82.5H455.934L444.376 61.512L432.818 82.5H380.992L409.08 43.492L381.614 5.12H433.563L444.376 25.26L455.064 5.12H507.014L480.045 43.492Z" fill="#FF1F68"/>
<path d="M306.153 39.676L332.998 5.12H379.355V82.5H333.744V47.732L307.023 82.5H260.666V5.12H306.277L306.153 39.676Z" fill="#FF1F68"/>
<path d="M126.729 45.824V41.796C126.729 19.854 146.489 3 190.361 3C233.238 3 251.383 17.204 253.744 40.418H204.156C203.037 36.92 199.433 33.74 190.236 33.74C180.418 33.74 175.82 37.768 175.82 43.386V44.234C175.82 49.852 180.418 53.88 190.236 53.88C199.433 53.88 203.037 50.7 204.156 47.202H253.744C251.383 70.416 233.238 84.62 190.361 84.62C146.489 84.62 126.729 67.766 126.729 45.824Z" fill="#FF1F68"/>
<path d="M51.097 82.5H3V5.12H119.825V82.5H71.6034V34.694H51.097V82.5Z" fill="#FF1F68"/>
<path d="M477.045 40.492L504.759 79.5H452.934L441.376 58.512L429.818 79.5H377.992L406.08 40.492L378.614 2.12H430.563L441.376 22.26L452.064 2.12H504.014L477.045 40.492Z" fill="#E8E74E"/>
<path d="M303.153 36.676L329.998 2.12H376.355V79.5H330.744V44.732L304.023 79.5H257.666V2.12H303.277L303.153 36.676Z" fill="#E8E74E"/>
<path d="M123.729 42.824V38.796C123.729 16.854 143.489 0 187.361 0C230.238 0 248.383 14.204 250.744 37.418H201.156C200.037 33.92 196.433 30.74 187.236 30.74C177.418 30.74 172.82 34.768 172.82 40.386V41.234C172.82 46.852 177.418 50.88 187.236 50.88C196.433 50.88 200.037 47.7 201.156 44.202H250.744C248.383 67.416 230.238 81.62 187.361 81.62C143.489 81.62 123.729 64.766 123.729 42.824Z" fill="#E8E74E"/>
<path d="M48.097 79.5H0V2.12H116.825V79.5H68.6034V31.694H48.097V79.5Z" fill="#E8E74E"/>
</svg>
